<svg version="1.1" xmlns="http://www.w3.org/2000/svg" width="512" height="512">
<path d="M0 0 C1.41008304 -0.01271484 2.82060005 0.0026342 4.23022461 0.04077148 C4.97590195 0.04310287 5.72157928 0.04543427 6.48985291 0.0478363 C8.06431537 0.05757104 9.63874292 0.07935255 11.21289062 0.11230469 C13.62739668 0.16175931 16.03986701 0.17378655 18.45483398 0.17944336 C19.98415261 0.19352781 21.5134535 0.20973167 23.04272461 0.22827148 C23.76669937 0.23363419 24.49067413 0.23899689 25.23658752 0.24452209 C30.33676651 0.36606339 30.33676651 0.36606339 32.57006836 2.59936523 C32.57006836 12.49936523 32.57006836 22.39936523 32.57006836 32.59936523 C68.21006836 32.59936523 103.85006836 32.59936523 140.57006836 32.59936523 C140.57006836 22.69936523 140.57006836 12.79936523 140.57006836 2.59936523 C143.42599056 -0.25655696 146.2714262 0.2751896 150.09741211 0.26342773 C150.84213272 0.25677094 151.58685333 0.25011414 152.35414124 0.24325562 C153.93024218 0.23312483 155.50638606 0.22843873 157.08251953 0.22875977 C159.49510326 0.22438782 161.9058556 0.18808052 164.31811523 0.15014648 C165.84870793 0.14427812 167.37930932 0.14030886 168.90991211 0.13842773 C169.63186264 0.1240567 170.35381317 0.10968567 171.09764099 0.09487915 C173.14013672 0.11352539 173.14013672 0.11352539 176.57006836 0.59936523 C179.57006836 4.59936523 179.57006836 4.59936523 179.57006836 32.59936523 C214.88006836 32.59936523 250.19006836 32.59936523 286.57006836 32.59936523 C286.57006836 23.02936523 286.57006836 13.45936523 286.57006836 3.59936523 C289.78822756 0.38120603 290.54879084 0.24523591 294.86437988 0.18252563 C295.56131958 0.18859833 296.25825928 0.19467102 296.97631836 0.20092773 C297.69742798 0.19805756 298.4185376 0.19518738 299.16149902 0.19223022 C300.68457831 0.19019072 302.20768386 0.19571277 303.73071289 0.20825195 C306.06187514 0.2243088 308.39130378 0.20840114 310.72241211 0.18920898 C312.20288469 0.19119144 313.68335618 0.19503516 315.16381836 0.20092773 C315.86075806 0.19485504 316.55769775 0.18878235 317.27575684 0.18252563 C322.06141428 0.25206653 322.06141428 0.25206653 324.25516224 1.74991322 C326.13715791 4.39699246 325.93904008 6.34749751 325.93083191 9.57878113 C325.9370179 11.45290932 325.9370179 11.45290932 325.94332886 13.36489868 C325.93271142 14.75189424 325.92180699 16.13888763 325.91064453 17.52587891 C325.90979844 18.98443077 325.91027306 20.44298391 325.91197205 21.90153503 C325.91283412 25.86415248 325.89517418 29.82649846 325.87425017 33.78905272 C325.85551866 37.92904144 325.85373572 42.06903612 325.85017395 46.20906067 C325.8408431 54.05011606 325.81621529 61.89104622 325.78612548 69.73204643 C325.75261379 78.65816792 325.7361036 87.58429535 325.72103918 96.51046407 C325.68966661 114.87350217 325.63688594 133.23642364 325.57006836 151.59936523 C326.66996094 151.58365479 327.76985352 151.56794434 328.90307617 151.55175781 C332.98812523 151.4974122 337.07314238 151.46299839 341.15844727 151.43457031 C342.92575455 151.41949422 344.69302449 151.39903002 346.46020508 151.37304688 C349.00212831 151.33661121 351.54355642 151.3196273 354.08569336 151.30639648 C354.87437805 151.29091263 355.66306274 151.27542877 356.47564697 151.25947571 C359.73763377 151.25847749 362.15062642 151.3805864 365.06997681 152.90330505 C367.50253814 155.65365079 367.10040356 158.77322341 367.03100586 162.25952148 C367.03008942 163.00519882 367.02917297 163.75087616 367.02822876 164.51914978 C367.02219239 166.09356054 367.006445 167.6679598 366.98168945 169.2421875 C366.94514809 171.65659707 366.94067028 174.0694735 366.94116211 176.48413086 C366.93133208 178.01344104 366.91967557 179.5427408 366.90600586 181.07202148 C366.90378021 181.79599625 366.90155457 182.51997101 366.89926147 183.2658844 C366.80223656 188.36719703 366.80223656 188.36719703 364.57006836 190.59936523 C351.70006836 190.59936523 338.83006836 190.59936523 325.57006836 190.59936523 C325.57006836 225.90936523 325.57006836 261.21936523 325.57006836 297.59936523 C337.45006836 297.59936523 349.33006836 297.59936523 361.57006836 297.59936523 C363.22006836 298.58936523 364.87006836 299.57936523 366.57006836 300.59936523 C367.09049192 303.34563055 367.2728405 305.47517197 367.23413086 308.22436523 C367.23891449 308.9676709 367.24369812 309.71097656 367.24862671 310.47680664 C367.25202633 312.04697793 367.24281906 313.61721993 367.22192383 315.18725586 C367.19515198 317.59185464 367.22166181 319.99178676 367.25366211 322.39624023 C367.25035801 323.92229221 367.24395176 325.44834128 367.23413086 326.97436523 C367.24425201 327.69317871 367.25437317 328.41199219 367.26480103 329.15258789 C367.21704102 331.18530273 367.21704102 331.18530273 366.57006836 334.59936523 C354.81966856 341.64960511 339.27327155 337.59936523 325.57006836 337.59936523 C325.57006836 372.57936523 325.57006836 407.55936523 325.57006836 443.59936523 C328.21006836 443.59936523 330.85006836 443.59936523 333.57006836 443.59936523 C340.77513511 445.74951428 346.5911402 450.23519101 350.57006836 456.59936523 C353.73008313 463.27461891 354.02865335 469.08889133 353.94506836 476.41186523 C353.95666992 477.44762695 353.96827148 478.48338867 353.98022461 479.55053711 C353.97635742 480.5424707 353.97249023 481.5344043 353.96850586 482.55639648 C353.96512207 483.45334229 353.96173828 484.35028809 353.95825195 485.27441406 C353.57006836 487.59936523 353.57006836 487.59936523 352.57473755 489.22041321 C349.36267088 491.42989788 345.87188574 491.01554129 342.10717773 490.98754883 C341.24349075 490.99280579 340.37980377 490.99806274 339.48994446 491.003479 C336.63105255 491.01669781 333.77271607 491.00793429 330.91381836 490.99780273 C328.92988986 490.99982293 326.94596208 491.00273391 324.96203613 491.00650024 C320.80249975 491.01092615 316.64315653 491.00448394 312.48364258 490.99047852 C307.14677303 490.97338653 301.81035605 490.98322629 296.47350311 491.00119591 C292.37632831 491.01202653 288.27926114 491.00859071 284.18208313 491.00081253 C282.21405484 490.99880853 280.24601683 491.0012768 278.27799988 491.00825119 C275.52938885 491.01585377 272.78151498 491.00427832 270.03295898 490.98754883 C269.21624222 490.99362152 268.39952545 490.99969421 267.55805969 491.00595093 C262.07189649 490.94395913 262.07189649 490.94395913 259.56738281 489.22416687 C257.23976142 485.43205994 258.05974138 480.34063381 258.07006836 476.03686523 C258.04170898 474.98950195 258.01334961 473.94213867 257.98413086 472.86303711 C257.96278996 464.27866083 259.96809066 457.72453522 265.66772461 451.19702148 C266.31612305 450.69041992 266.96452148 450.18381836 267.63256836 449.66186523 C268.28354492 449.1372168 268.93452148 448.61256836 269.60522461 448.07202148 C270.25362305 447.58604492 270.90202148 447.10006836 271.57006836 446.59936523 C272.89006836 445.60936523 274.21006836 444.61936523 275.57006836 443.59936523 C264.02006836 432.04936523 252.47006836 420.49936523 240.57006836 408.59936523 C236.17280518 411.11208705 232.59240275 413.22150103 228.69506836 416.22436523 C223.88847355 419.77764545 218.91364847 422.89017797 213.75756836 425.91186523 C212.68176514 426.5424585 212.68176514 426.5424585 211.58422852 427.18579102 C208.55493856 428.94070462 205.57511896 430.59702941 202.39428711 432.06811523 C199.05356391 433.87940638 196.82316499 436.05222415 194.19506836 438.78686523 C193.32108398 439.68791992 192.44709961 440.58897461 191.54663086 441.51733398 C190.89436523 442.2044043 190.24209961 442.89147461 189.57006836 443.59936523 C190.29452148 444.06084961 191.01897461 444.52233398 191.76538086 444.99780273 C199.59902926 450.28290419 205.58758216 456.06013351 207.57006836 465.59936523 C207.81311964 469.09635765 207.80104736 472.59474618 207.82006836 476.09936523 C207.84069336 477.0494043 207.86131836 477.99944336 207.88256836 478.97827148 C207.88772461 479.89479492 207.89288086 480.81131836 207.89819336 481.75561523 C207.90753906 482.58899414 207.91688477 483.42237305 207.92651367 484.28100586 C207.45465757 487.35000964 206.85098007 488.4562018 204.57006836 490.59936523 C201.62503633 490.99089723 199.05313793 491.12574506 196.10717773 491.08520508 C195.24349075 491.08900177 194.37980377 491.09279846 193.48994446 491.09671021 C190.63086805 491.10412843 187.77280468 491.08271567 184.91381836 491.06030273 C182.92989217 491.05791896 180.94596369 491.05701285 178.96203613 491.05752563 C174.80242804 491.05439545 170.6431641 491.03781328 166.48364258 491.01098633 C161.14683512 490.97700624 155.81040607 490.96935762 150.47350311 490.97087669 C146.37632624 490.9703333 142.27923241 490.95937107 138.18208313 490.94487381 C136.21406177 490.93850115 134.24603099 490.93456582 132.27799988 490.9330864 C129.52948931 490.92875837 126.78138295 490.91126812 124.03295898 490.88989258 C122.80788383 490.89125214 122.80788383 490.89125214 121.55805969 490.89263916 C117.70795907 490.84877178 115.84877189 490.78516759 112.57006836 488.59936523 C109.93363174 480.69005537 110.28481155 467.36310893 113.57006836 459.59936523 C114.86828409 457.57639373 116.19707313 455.57234822 117.57006836 453.59936523 C116.6461731 453.58534668 116.6461731 453.58534668 115.70361328 453.57104492 C94.5370303 453.17369672 73.22071087 451.58250736 52.94726562 445.08666992 C48.25493796 443.57997809 48.25493796 443.57997809 43.57006836 444.59936523 C44.62194336 445.15624023 45.67381836 445.71311523 46.75756836 446.28686523 C53.49982348 450.16094328 58.39724517 455.73030084 60.66772461 463.22045898 C61.74547232 467.78193073 61.86676405 472.17979594 61.82006836 476.84936523 C61.82780273 477.63827148 61.83553711 478.42717773 61.84350586 479.23999023 C61.81888747 486.52703491 61.81888747 486.52703491 59.57006836 489.59936523 C56.33207912 491.21835986 52.77934132 490.76470231 49.22070312 490.77636719 C48.35716217 490.78293839 47.49362122 490.78950958 46.60391235 490.79627991 C43.73976562 490.81602859 40.87567129 490.82767724 38.01147461 490.83764648 C37.03515516 490.84172201 36.05883572 490.84579754 35.05293083 490.84999657 C29.8883167 490.87086118 24.7237292 490.88516281 19.55908203 490.89453125 C14.21430609 490.90561367 8.86994443 490.94003352 3.52531528 490.97970295 C-0.57612403 491.00579192 -4.67746334 491.01421605 -8.77897835 491.01781273 C-10.74982574 491.02269649 -12.72066815 491.03436096 -14.69143486 491.05285072 C-17.44501936 491.07708477 -20.19751438 491.07630653 -22.95117188 491.06933594 C-24.17860359 491.08855103 -24.17860359 491.08855103 -25.43083191 491.1081543 C-30.94626037 491.05709649 -30.94626037 491.05709649 -33.43460083 488.70220947 C-34.53811335 486.37080878 -34.82994793 484.7931587 -34.86352539 482.22045898 C-34.87488525 481.38659668 -34.88624512 480.55273438 -34.89794922 479.69360352 C-34.88787842 478.81687988 -34.87780762 477.94015625 -34.86743164 477.03686523 C-34.8605835 476.1395166 -34.85373535 475.24216797 -34.84667969 474.31762695 C-34.61335953 464.65799758 -32.57381942 456.41853084 -25.42993164 449.59936523 C-18.95487118 444.85615728 -14.51587477 443.44386633 -6.42993164 443.59936523 C-4.76634946 428.34973007 -4.76634946 428.34973007 -8.98461914 414.18969727 C-12.78314979 410.35970289 -17.20882774 407.77923649 -21.90759277 405.19874573 C-24.80627558 403.3607307 -27.19495302 401.24727788 -29.72119141 398.92602539 C-30.60726578 398.11573883 -31.49334015 397.30545227 -32.40626526 396.47061157 C-33.07407516 395.85310028 -33.74188507 395.23558899 -34.42993164 394.59936523 C-34.438731 396.33703911 -34.438731 396.33703911 -34.44770813 398.1098175 C-34.5048585 409.01368401 -34.57757963 419.9173496 -34.66564655 430.82101154 C-34.71042231 436.42704654 -34.74966249 442.03300764 -34.77636719 447.63916016 C-34.80232832 453.04686176 -34.8426795 458.4542801 -34.8931179 463.86180687 C-34.90983538 465.92748689 -34.92131916 467.99321596 -34.92754555 470.05895424 C-34.93713365 472.9468333 -34.96512909 475.83397963 -34.99755859 478.72167969 C-34.99540596 480.00992897 -34.99540596 480.00992897 -34.99320984 481.32420349 C-35.08613578 487.1543547 -35.08613578 487.1543547 -36.75868511 489.31930828 C-39.46400912 491.39139564 -42.05460129 490.97053347 -45.39868164 490.96264648 C-46.41375793 490.96339424 -46.41375793 490.96339424 -47.44934082 490.9641571 C-48.87828512 490.96181947 -50.30723376 490.95210906 -51.73608398 490.93554688 C-53.92216851 490.91194903 -56.10703331 490.91498818 -58.29321289 490.92163086 C-69.01106742 490.87860805 -69.01106742 490.87860805 -72.42993164 488.59936523 C-73.48922344 485.42148983 -73.54452103 483.1734758 -73.52758789 479.83764648 C-73.52509033 478.83000244 -73.52259277 477.8223584 -73.52001953 476.78417969 C-73.51091553 475.50631592 -73.50181152 474.22845215 -73.49243164 472.91186523 C-73.47180664 468.84874023 -73.45118164 464.78561523 -73.42993164 460.59936523 C-84.64993164 460.59936523 -95.86993164 460.59936523 -107.42993164 460.59936523 C-107.3509659 468.64686507 -107.3509659 468.64686507 -107.24975586 476.6940918 C-107.24476074 477.69923828 -107.23976562 478.70438477 -107.23461914 479.73999023 C-107.21890869 481.27961426 -107.21890869 481.27961426 -107.20288086 482.8503418 C-107.43421583 485.65123613 -107.89752371 487.26343493 -109.42993164 489.59936523 C-113.8298512 491.79932501 -119.76945585 490.82646449 -124.66064453 490.83959961 C-126.85560897 490.84931292 -129.04963986 490.88033933 -131.24438477 490.91186523 C-132.63825941 490.91839472 -134.03214075 490.92364541 -135.42602539 490.92749023 C-136.69631592 490.93683594 -137.96660645 490.94618164 -139.27539062 490.95581055 C-142.42993164 490.59936523 -142.42993164 490.59936523 -144.10314608 489.45493031 C-146.00761695 486.79144818 -145.8084008 484.8117729 -145.81304169 481.55387878 C-145.82209833 480.28179975 -145.83115497 479.00972071 -145.84048605 477.69909382 C-145.83538123 476.27937533 -145.8299891 474.85965784 -145.82434082 473.43994141 C-145.82922667 471.93805833 -145.83541504 470.43617902 -145.84279871 468.93430614 C-145.85926018 464.79664705 -145.85686778 460.65917771 -145.85142374 456.52149725 C-145.84876118 452.06334922 -145.86327065 447.60525266 -145.8755188 443.14712524 C-145.89660713 434.40947096 -145.90111174 425.67188297 -145.89933091 416.93420625 C-145.89802511 409.83522881 -145.90181809 402.73627212 -145.90925598 395.63729858 C-145.91135509 393.59523742 -145.91345269 391.55317625 -145.9155488 389.51111507 C-145.91659233 388.49484504 -145.91763586 387.478575 -145.91871101 386.4315089 C-145.93762675 367.19734522 -145.93655895 347.96321965 -145.92974168 328.72905052 C-145.92416391 311.11639009 -145.94499925 293.50387503 -145.97810215 275.89124858 C-146.01179823 257.82335829 -146.02701267 239.75553771 -146.02238512 221.68761539 C-146.02013646 211.53708172 -146.02544149 201.38668245 -146.05027771 191.23617554 C-146.07123808 182.59589238 -146.07493531 173.95581732 -146.05597812 165.31552577 C-146.046788 160.90396338 -146.04577665 156.49278953 -146.06633377 152.08125687 C-146.08492535 148.04705169 -146.08067499 144.01355644 -146.05778795 139.9793793 C-146.05357205 138.51576349 -146.05790164 137.05209449 -146.07138389 135.58853471 C-146.08839919 133.60737119 -146.0719365 131.62600297 -146.05355072 129.64485168 C-146.0538231 128.54187146 -146.05409549 127.43889124 -146.05437613 126.30248737 C-145.42993164 123.59936523 -145.42993164 123.59936523 -143.07638025 121.74578381 C-139.9424576 120.38819571 -137.62205514 120.21168274 -134.21118164 120.20092773 C-132.44194336 120.19512695 -132.44194336 120.19512695 -130.63696289 120.18920898 C-128.80198242 120.20661133 -128.80198242 120.20661133 -126.92993164 120.22436523 C-125.70661133 120.21276367 -124.48329102 120.20116211 -123.22290039 120.18920898 C-122.0434082 120.19307617 -120.86391602 120.19694336 -119.64868164 120.20092773 C-118.57553711 120.20431152 -117.50239258 120.20769531 -116.39672852 120.21118164 C-113.01574886 120.65355801 -111.12820443 121.53565929 -108.42993164 123.59936523 C-107.37063984 126.77724064 -107.31534225 129.02525467 -107.33227539 132.36108398 C-107.33477295 133.36872803 -107.33727051 134.37637207 -107.33984375 135.41455078 C-107.34894775 136.69241455 -107.35805176 137.97027832 -107.36743164 139.28686523 C-107.38805664 143.34999023 -107.40868164 147.41311523 -107.42993164 151.59936523 C-96.53993164 151.26936523 -85.64993164 150.93936523 -74.42993164 150.59936523 C-74.22031653 142.92651791 -74.22031653 142.92651791 -74.04199219 135.25292969 C-73.992323 133.8098645 -73.992323 133.8098645 -73.94165039 132.33764648 C-73.91546631 131.35836182 -73.88928223 130.37907715 -73.86230469 129.37011719 C-73.35702667 126.13217239 -72.39197256 124.21127253 -70.42993164 121.59936523 C-67.00760192 120.45858866 -64.34319947 120.50121407 -60.74243164 120.53686523 C-59.56293945 120.54588867 -58.38344727 120.55491211 -57.16821289 120.56420898 C-55.81276367 120.58161133 -55.81276367 120.58161133 -54.42993164 120.59936523 C-54.17598633 120.03862305 -53.92204102 119.47788086 -53.66040039 118.90014648 C-45.84072153 104.27858824 -30.36402212 91.59663268 -17.42993164 81.59936523 C-16.14022461 80.56102539 -16.14022461 80.56102539 -14.82446289 79.50170898 C-8.69409665 74.59936523 -8.69409665 74.59936523 -6.42993164 74.59936523 C-6.43992439 73.31936394 -6.43992439 73.31936394 -6.45011902 72.01350403 C-6.51026996 63.96536106 -6.5559263 55.91729377 -6.58536816 47.86897755 C-6.60101346 43.73140168 -6.62223081 39.5940118 -6.65625 35.45654297 C-6.68888423 31.46244673 -6.7067932 27.46852921 -6.71456337 23.47430992 C-6.72009961 21.9516894 -6.73091064 20.42907848 -6.74712181 18.90653419 C-6.76895078 16.77113454 -6.77189638 14.63647013 -6.77050781 12.50097656 C-6.78050056 10.67896477 -6.78050056 10.67896477 -6.79069519 8.82014465 C-6.22145342 3.73813962 -5.22101339 0.91234877 0 0 Z M42.57006836 44.59936523 C43.56006836 46.08436523 43.56006836 46.08436523 44.57006836 47.59936523 C49.38456244 47.11791583 52.17178577 46.79850653 56.57006836 44.59936523 C51.95006836 44.59936523 47.33006836 44.59936523 42.57006836 44.59936523 Z M188.57006836 44.59936523 C190.55006836 46.90936523 192.53006836 49.21936523 194.57006836 51.59936523 C195.2390918 52.38182617 195.90811523 53.16428711 196.59741211 53.97045898 C202.01137566 59.82728254 207.77342509 63.09681216 214.78491211 66.62670898 C220.36612722 69.4618137 225.42728844 73.0493623 230.57006836 76.59936523 C232.13056425 77.64443821 233.69268072 78.68709396 235.25610352 79.7277832 C236.06455719 80.26611786 236.87301086 80.80445251 237.70596313 81.35910034 C238.32111786 81.76838776 238.93627258 82.17767517 239.57006836 82.59936523 C244.84290892 77.35178455 250.11190003 72.10036217 255.37817383 66.84619141 C257.17187523 65.05753306 258.96647114 63.2697713 260.76196289 61.48291016 C263.33574793 58.92119196 265.90634706 56.35631495 268.47631836 53.79077148 C269.69031311 52.58451866 269.69031311 52.58451866 270.92883301 51.35389709 C271.66960083 50.6132048 272.41036865 49.87251251 273.17358398 49.109375 C273.83088501 48.45429459 274.48818604 47.79921417 275.16540527 47.12428284 C276.6829868 45.82232488 276.6829868 45.82232488 276.57006836 44.59936523 C247.53006836 44.59936523 218.49006836 44.59936523 188.57006836 44.59936523 Z M284.08311462 55.96606445 C283.4457991 56.60560059 282.80848358 57.24513672 282.15185547 57.90405273 C281.43118393 58.6247998 280.71051239 59.34554687 279.96800232 60.08813477 C279.18570755 60.87559082 278.40341278 61.66304687 277.59741211 62.47436523 C276.79976944 63.27342285 276.00212677 64.07248047 275.18031311 64.89575195 C272.62038766 67.46129783 270.06395142 70.03029006 267.50756836 72.59936523 C265.7779785 74.33396746 264.0481638 76.06834552 262.31811523 77.80249023 C258.06614893 82.06551264 253.81704617 86.3313734 249.57006836 90.59936523 C250.52235775 91.71975003 251.47598643 92.83899656 252.43017578 93.95776367 C252.96108322 94.58116638 253.49199066 95.20456909 254.03898621 95.84686279 C255.88624481 97.96126613 257.85425643 99.90890862 259.88256836 101.84936523 C267.58603452 109.48842114 274.02953167 118.02954116 280.20849609 126.91650391 C282.18791255 129.74983376 284.11213186 132.14142874 286.57006836 134.59936523 C286.57006836 108.19936523 286.57006836 81.79936523 286.57006836 54.59936523 C285.35617219 54.48658051 285.35617219 54.48658051 284.08311462 55.96606445 Z M-107.42993164 187.59936523 C-107.42993164 198.15936523 -107.42993164 208.71936523 -107.42993164 219.59936523 C-103.46993164 219.59936523 -99.50993164 219.59936523 -95.42993164 219.59936523 C-95.25341064 218.77210938 -95.07688965 217.94485352 -94.89501953 217.0925293 C-94.23769583 214.01363461 -93.57975016 210.93487368 -92.92138672 207.85620117 C-92.63695875 206.52552505 -92.35277634 205.19479642 -92.06884766 203.86401367 C-91.65991259 201.94753339 -91.25001143 200.03125933 -90.84008789 198.11499023 C-90.59395752 196.96289062 -90.34782715 195.81079102 -90.09423828 194.6237793 C-89.57800643 192.27351095 -89.01354395 189.93381448 -88.42993164 187.59936523 C-94.69993164 187.59936523 -100.96993164 187.59936523 -107.42993164 187.59936523 Z M-107.42993164 255.59936523 C-107.42993164 266.15936523 -107.42993164 276.71936523 -107.42993164 287.59936523 C-102.47993164 287.59936523 -97.52993164 287.59936523 -92.42993164 287.59936523 C-92.73737305 285.39120117 -92.73737305 285.39120117 -93.05102539 283.13842773 C-93.32325816 281.16708701 -93.59538808 279.19573208 -93.86743164 277.22436523 C-94.00213867 276.25885742 -94.1368457 275.29334961 -94.27563477 274.29858398 C-95.13200986 268.07419917 -95.84098039 261.85482799 -96.42993164 255.59936523 C-100.05993164 255.59936523 -103.68993164 255.59936523 -107.42993164 255.59936523 Z M-107.42993164 323.59936523 C-107.42993164 334.15936523 -107.42993164 344.71936523 -107.42993164 355.59936523 C-96.20993164 355.59936523 -84.98993164 355.59936523 -73.42993164 355.59936523 C-73.04658151 342.22498863 -73.04658151 342.22498863 -77.42993164 331.16186523 C-79.40993164 327.41842773 -79.40993164 327.41842773 -81.42993164 323.59936523 C-90.00993164 323.59936523 -98.58993164 323.59936523 -107.42993164 323.59936523 Z M285.57006836 355.59936523 C284.55938294 357.14166501 283.58854315 358.71006917 282.63256836 360.28686523 C274.40679576 373.31515962 263.5609617 388.93876967 250.57006836 397.59936523 C251.92954109 400.6376878 253.45880382 402.73681082 255.81054688 405.08276367 C256.46785294 405.74314636 257.125159 406.40352905 257.80238342 407.08392334 C258.51075851 407.78511292 259.21913361 408.48630249 259.94897461 409.20874023 C260.67624252 409.93554993 261.40351044 410.66235962 262.15281677 411.41119385 C263.68789122 412.94325114 265.22539146 414.47288117 266.76513672 416.00024414 C269.13235068 418.34914924 271.49141255 420.7060107 273.84936523 423.06420898 C275.3404295 424.55035997 276.8319502 426.03605319 278.32397461 427.52124023 C279.03437393 428.23052673 279.74477325 428.93981323 280.47669983 429.67059326 C281.13085373 430.31836731 281.78500763 430.96614136 282.45898438 431.63354492 C283.03697281 432.20772156 283.61496124 432.78189819 284.21046448 433.37347412 C285.3887382 434.71097236 285.3887382 434.71097236 286.57006836 434.59936523 C286.57006836 408.52936523 286.57006836 382.45936523 286.57006836 355.59936523 C286.24006836 355.59936523 285.91006836 355.59936523 285.57006836 355.59936523 Z M-107.42993164 392.59936523 C-107.42993164 403.15936523 -107.42993164 413.71936523 -107.42993164 424.59936523 C-96.20993164 424.59936523 -84.98993164 424.59936523 -73.42993164 424.59936523 C-73.42993164 414.03936523 -73.42993164 403.47936523 -73.42993164 392.59936523 C-84.64993164 392.59936523 -95.86993164 392.59936523 -107.42993164 392.59936523 Z " fill="#4E4573" transform="translate(145.429931640625,10.400634765625)"/>
<path d="M0 0 C129.03 0 258.06 0 391 0 C391 4.95 391 9.9 391 15 C261.97 15 132.94 15 0 15 C0 10.05 0 5.1 0 0 Z " fill="#D2E5F7" transform="translate(110,174)"/>
<path d="M0 0 C128.7 0 257.4 0 390 0 C390 4.62 390 9.24 390 14 C261.3 14 132.6 14 0 14 C0 9.38 0 4.76 0 0 Z " fill="#D2E5F7" transform="translate(110,321)"/>
<path d="M0 0 C4.29 0 8.58 0 13 0 C13 113.85 13 227.7 13 345 C8.71 345 4.42 345 0 345 C0 231.15 0 117.3 0 0 Z " fill="#FC909D" transform="translate(85,144)"/>
<path d="M0 0 C4.29 0 8.58 0 13 0 C13 113.85 13 227.7 13 345 C8.71 345 4.42 345 0 345 C0 231.15 0 117.3 0 0 Z " fill="#FC909D" transform="translate(12,144)"/>
<path d="M0 0 C9.9 0 19.8 0 30 0 C30 35.64 30 71.28 30 108 C20.1 108 10.2 108 0 108 C0 72.36 0 36.72 0 0 Z " fill="#EEC389" transform="translate(110,201)"/>
<path d="M0 0 C3.44677 1.48343 5.67343301 3.43050188 8.30957031 6.08251953 C9.5704245 7.34360031 9.5704245 7.34360031 10.85675049 8.63015747 C11.75480408 9.53853363 12.65285767 10.44690979 13.578125 11.3828125 C14.5046991 12.31221649 15.43127319 13.24162048 16.38592529 14.19918823 C18.84315789 16.6640385 21.29432361 19.13483666 23.7442627 21.60693359 C26.24773809 24.13090765 28.75692063 26.64919388 31.265625 29.16796875 C36.18267525 34.10643597 41.09333788 39.051212 46 44 C40.74002939 49.31765411 35.87838914 53.26836004 28.1640625 53.7265625 C25.98411521 53.73024089 23.80384458 53.6944263 21.625 53.625 C20.45179199 53.6038916 19.27858398 53.5827832 18.06982422 53.56103516 C-2.24408142 52.96269141 -21.69406314 49.20769674 -41 43 C-39.55419034 39.68386118 -37.75170208 37.50814272 -35.19287109 34.96582031 C-34.41221283 34.18531311 -33.63155457 33.40480591 -32.82723999 32.60064697 C-31.98448517 31.76821472 -31.14173035 30.93578247 -30.2734375 30.078125 C-29.41062164 29.21813904 -28.54780579 28.35815308 -27.65884399 27.47210693 C-24.90221971 24.7266769 -22.13872201 21.9882831 -19.375 19.25 C-17.50475143 17.38978217 -15.63495411 15.52911054 -13.765625 13.66796875 C-9.1823064 9.10670055 -4.59332522 4.55118989 0 0 Z " fill="#EFC389" transform="translate(231,410)"/>
<path d="M0 0 C0 26.07 0 52.14 0 79 C-9.9 79 -19.8 79 -30 79 C-30.375 65.125 -30.375 65.125 -30.47802734 60.75048828 C-30.5136377 59.61853027 -30.54924805 58.48657227 -30.5859375 57.3203125 C-30.6173584 56.15773926 -30.6487793 54.99516602 -30.68115234 53.79736328 C-30.72157869 50.86343518 -30.72157869 50.86343518 -33 49 C-35.89967757 48.69324768 -38.71783178 48.48826629 -41.625 48.375 C-42.42679687 48.33632812 -43.22859375 48.29765625 -44.0546875 48.2578125 C-46.03607556 48.16346069 -48.01800645 48.08063785 -50 48 C-46.89873449 41.90965946 -42.92563738 37.39126278 -38.1875 32.5 C-37.50107422 31.77941406 -36.81464844 31.05882813 -36.10742188 30.31640625 C-34.08367466 28.19884294 -32.04608598 26.09597218 -30 24 C-29.37722168 23.3618335 -28.75444336 22.72366699 -28.11279297 22.06616211 C-6.33374256 0 -6.33374256 0 0 0 Z " fill="#EEC289" transform="translate(140,84)"/>
<path d="M0 0 C5.70693273 4.74727985 10.97399321 9.82819495 16.21484375 15.08203125 C17.07058487 15.93681564 17.92632599 16.79160004 18.80799866 17.67228699 C20.60345254 19.46706379 22.39765791 21.26309036 24.19067383 23.06030273 C26.9495462 25.82456976 29.71376389 28.58341159 32.47851562 31.34179688 C34.22427942 33.08822076 35.96973337 34.83495444 37.71484375 36.58203125 C38.54596176 37.41112503 39.37707977 38.24021881 40.23338318 39.09443665 C40.99159866 39.85580429 41.74981415 40.61717194 42.53100586 41.40161133 C43.53858192 42.41038078 43.53858192 42.41038078 44.56651306 43.43952942 C46 45 46 45 46 46 C15.97 46 -14.06 46 -45 46 C-45 45.34 -45 44.68 -45 44 C-43.56201172 42.58201599 -43.56201172 42.58201599 -41.5546875 40.92358398 C-36.84057915 36.91228305 -32.48527031 32.61222791 -28.125 28.22265625 C-27.31506592 27.41130722 -26.50513184 26.59995819 -25.6706543 25.76402283 C-23.11138985 23.19920861 -20.5556447 20.63092052 -18 18.0625 C-16.25413867 16.31161717 -14.50804713 14.56096387 -12.76171875 12.81054688 C-8.50514802 8.54301384 -4.25145284 4.27263134 0 0 Z " fill="#EBC089" transform="translate(378,117)"/>
<path d="M0 0 C30.03 0 60.06 0 91 0 C84.25 7.875 84.25 7.875 80.73876953 11.37475586 C79.95841339 12.15503647 79.17805725 12.93531708 78.37405396 13.73924255 C77.55194427 14.55619095 76.72983459 15.37313934 75.8828125 16.21484375 C75.02565643 17.07058487 74.16850037 17.92632599 73.28536987 18.80799866 C70.56760046 21.52020465 67.84636109 24.2288983 65.125 26.9375 C63.27320658 28.78427369 61.42164166 30.63127653 59.5703125 32.47851562 C55.04951565 36.98833201 50.52587054 41.49527569 46 46 C40.29306727 41.25272015 35.02600679 36.17180505 29.78515625 30.91796875 C28.92941513 30.06318436 28.07367401 29.20839996 27.19200134 28.32771301 C25.39654746 26.53293621 23.60234209 24.73690964 21.80932617 22.93969727 C19.0504538 20.17543024 16.28623611 17.41658841 13.52148438 14.65820312 C11.77572058 12.91177924 10.03026663 11.16504556 8.28515625 9.41796875 C7.45403824 8.58887497 6.62292023 7.75978119 5.76661682 6.90556335 C5.00840134 6.14419571 4.25018585 5.38282806 3.46899414 4.59838867 C2.79727676 3.9258757 2.12555939 3.25336273 1.43348694 2.56047058 C0 1 0 1 0 0 Z " fill="#EDC189" transform="translate(333,347)"/>
<path d="M0 0 C7.875 6.75 7.875 6.75 11.37475586 10.26123047 C12.54517677 11.43176468 12.54517677 11.43176468 13.73924255 12.62594604 C14.55619095 13.44805573 15.37313934 14.27016541 16.21484375 15.1171875 C17.07058487 15.97434357 17.92632599 16.83149963 18.80799866 17.71463013 C21.52020465 20.43239954 24.2288983 23.15363891 26.9375 25.875 C28.78427369 27.72679342 30.63127653 29.57835834 32.47851562 31.4296875 C36.98833201 35.95048435 41.49527569 40.47412946 46 45 C41.25272015 50.70693273 36.17180505 55.97399321 30.91796875 61.21484375 C30.06318436 62.07058487 29.20839996 62.92632599 28.32771301 63.80799866 C26.53293621 65.60345254 24.73690964 67.39765791 22.93969727 69.19067383 C20.17543024 71.9495462 17.41658841 74.71376389 14.65820312 77.47851562 C12.91177924 79.22427942 11.16504556 80.96973337 9.41796875 82.71484375 C8.58887497 83.54596176 7.75978119 84.37707977 6.90556335 85.23338318 C6.14419571 85.99159866 5.38282806 86.74981415 4.59838867 87.53100586 C3.58961922 88.53858192 3.58961922 88.53858192 2.56047058 89.56651306 C1 91 1 91 0 91 C0 60.97 0 30.94 0 0 Z " fill="#ECC089" transform="translate(324,63)"/>
<path d="M0 0 C7.886436 6.75980228 7.886436 6.75980228 11.29882812 10.10595703 C12.06231567 10.85338165 12.82580322 11.60080627 13.61242676 12.37088013 C17.01876349 15.73230616 20.42283123 19.09591338 23.81835938 22.46826172 C25.61514633 24.24836328 27.41729842 26.02306474 29.22460938 27.79248047 C31.83890461 30.35235066 34.43667774 32.92797281 37.03125 35.5078125 C37.84565552 36.29954865 38.66006104 37.09128479 39.49914551 37.90701294 C40.23741577 38.64813324 40.97568604 39.38925354 41.73632812 40.15283203 C42.39250122 40.80091827 43.04867432 41.44900452 43.72473145 42.11672974 C45 44 45 44 44.95678711 45.96536255 C43.69636518 48.64568887 42.05618843 50.31035354 39.95507812 52.40136719 C39.09748901 53.2619574 38.2398999 54.12254761 37.35632324 55.00921631 C36.42404907 55.92914368 35.4917749 56.84907104 34.53125 57.796875 C33.57042193 58.75464487 32.61018402 59.71300712 31.6505127 60.67193604 C29.64083605 62.67701499 27.62635419 64.67708754 25.60791016 66.67333984 C23.01497034 69.23792145 20.43085784 71.8111725 17.84983063 74.38773727 C15.86870673 76.36471494 13.88476728 78.33884487 11.89976501 80.3119278 C10.48039612 81.7227986 9.06203216 83.13468016 7.64367676 84.54656982 C6.78608765 85.39455139 5.92849854 86.24253296 5.04492188 87.11621094 C4.28626831 87.8680365 3.52761475 88.61986206 2.74597168 89.39447021 C1 91 1 91 0 91 C0 60.97 0 30.94 0 0 Z " fill="#EDC189" transform="translate(324,356)"/>
<path d="M0 0 C3.60511923 1.80255961 5.43404437 3.16887612 8.23364258 5.92724609 C9.05741898 6.7350351 9.88119537 7.5428241 10.72993469 8.37509155 C11.60925156 9.24904572 12.48856842 10.12299988 13.39453125 11.0234375 C14.75465584 12.37001938 14.75465584 12.37001938 16.14225769 13.74380493 C18.05555303 15.64259757 19.96628824 17.54365053 21.8737793 19.44824219 C24.32132955 21.89038879 26.78465644 24.31594043 29.25217152 26.73789024 C31.6022951 29.05118765 33.9347403 31.38218148 36.26953125 33.7109375 C37.15896927 34.5808432 38.04840729 35.4507489 38.96479797 36.34701538 C39.77281357 37.1611087 40.58082916 37.97520203 41.41333008 38.81396484 C42.13184647 39.52741058 42.85036285 40.24085632 43.59065247 40.97592163 C45 43 45 43 44.96549988 45 C43.72415096 47.57141186 42.17344137 49.17849832 40.13867188 51.18603516 C39.32112427 52.00012848 38.50357666 52.8142218 37.66125488 53.65298462 C36.77272827 54.52289032 35.88420166 55.39279602 34.96875 56.2890625 C33.60937317 57.63851456 33.60937317 57.63851456 32.22253418 59.01522827 C29.81473467 61.40356825 27.40093673 63.78547955 24.98358154 66.16412354 C21.57450258 69.52102916 18.17546096 72.88807555 14.77746582 76.25619507 C12.96769203 78.04893461 11.15485307 79.83858592 9.33874512 81.62490845 C8.11242371 82.83659195 8.11242371 82.83659195 6.86132812 84.07275391 C6.13820435 84.78460846 5.41508057 85.49646301 4.67004395 86.22988892 C2.92563917 87.90829628 2.92563917 87.90829628 2 90 C1.34 90 0.68 90 0 90 C0 60.3 0 30.6 0 0 Z " fill="#ECC189" transform="translate(324,210)"/>
<path d="M0 0 C4.95 0 9.9 0 15 0 C15 46.2 15 92.4 15 140 C10.05 140 5.1 140 0 140 C0 93.8 0 47.6 0 0 Z " fill="#D0E2F5" transform="translate(444,23)"/>
<path d="M0 0 C9.9 0 19.8 0 30 0 C30 26.4 30 52.8 30 80 C25.3979143 78.15916572 22.16484087 76.04374244 18.375 73 C17.54548828 72.35224609 17.54548828 72.35224609 16.69921875 71.69140625 C15.48620183 70.72917036 14.30027406 69.73221978 13.13696289 68.71044922 C10.97161366 66.87605533 10.97161366 66.87605533 8.11108398 65.41845703 C4.48360999 63.05549702 1.82959955 60.9328993 0 57 C-1.76073959 48.13149652 -1.0896634 38.87349872 -0.75531006 29.89031982 C-0.64186748 26.51879824 -0.59174656 23.14633998 -0.53710938 19.7734375 C-0.42569076 13.17745542 -0.21052724 6.59652016 0 0 Z " fill="#EEC289" transform="translate(110,347)"/>
<path d="M0 0 C3.33735172 1.45207935 5.52072537 3.2772755 8.07836914 5.85131836 C8.86921402 6.6423143 9.6600589 7.43331024 10.47486877 8.24827576 C11.31976364 9.10349319 12.16465851 9.95871063 13.03515625 10.83984375 C13.91022324 11.71774063 14.78529022 12.59563751 15.68687439 13.50013733 C18.0089587 15.83151676 20.32664788 18.16715204 22.64227295 20.50494385 C24.99553681 22.87863658 27.35451956 25.24661576 29.71289062 27.61523438 C33.86201455 31.78402755 38.00671975 35.95715716 42.14759827 40.13414001 C43.76143699 41.75970375 45.38028816 43.38028816 47 45 C16.64 45 -13.72 45 -45 45 C-30 30 -15 15 0 0 Z " fill="#ECC189" transform="translate(231,118)"/>
<path d="M0 0 C1.54241943 1.46476746 1.54241943 1.46476746 3.18652344 3.49291992 C6.9147491 7.93884916 10.8995832 12.02766773 15.015625 16.11328125 C15.75327087 16.84951218 16.49091675 17.5857431 17.25091553 18.34428406 C19.58158072 20.6694074 21.91571489 22.99101145 24.25 25.3125 C25.83096195 26.88843839 27.4116932 28.46460824 28.9921875 30.04101562 C32.45785825 33.49691362 35.92571178 36.95060341 39.39556885 40.40229797 C40.9324777 41.93276089 42.46631073 43.46631073 44 45 C13.97 45 -16.06 45 -47 45 C-40.24449932 37.11858254 -40.24449932 37.11858254 -36.87817383 33.71704102 C-36.12752151 32.95678116 -35.3768692 32.1965213 -34.60346985 31.41322327 C-33.81264511 30.61814865 -33.02182037 29.82307404 -32.20703125 29.00390625 C-30.96526375 27.75358864 -30.96526375 27.75358864 -29.69841003 26.47801208 C-27.95927066 24.72947678 -26.21871217 22.98235192 -24.47680664 21.23657227 C-21.80348842 18.55345539 -19.14101142 15.8598666 -16.47851562 13.16601562 C-14.78451212 11.46549015 -13.08987308 9.76559748 -11.39453125 8.06640625 C-10.59763382 7.25716202 -9.80073639 6.44791779 -8.97969055 5.614151 C-8.23849472 4.87595627 -7.49729889 4.13776154 -6.73364258 3.37719727 C-6.08333572 2.72324478 -5.43302887 2.0692923 -4.76301575 1.39552307 C-3 0 -3 0 0 0 Z " fill="#EFC389" transform="translate(380,264)"/>
<path d="M0 0 C0 29.7 0 59.4 0 90 C-7.875 83.25 -7.875 83.25 -11.28295898 79.83056641 C-12.04321884 79.07023102 -12.8034787 78.30989563 -13.58677673 77.52651978 C-14.38185135 76.72628387 -15.17692596 75.92604797 -15.99609375 75.1015625 C-16.82963882 74.26660248 -17.6631839 73.43164246 -18.52198792 72.57138062 C-21.16286524 69.92494152 -23.80022896 67.27503241 -26.4375 64.625 C-28.23609649 62.82138357 -30.03492227 61.01799575 -31.83398438 59.21484375 C-36.22531248 54.81253739 -40.61376729 50.40738286 -45 46 C-43.51756178 42.56011491 -41.57544821 40.32743123 -38.93334961 37.69042969 C-38.09585678 36.84986023 -37.25836395 36.00929077 -36.39549255 35.14324951 C-35.49025345 34.24519592 -34.58501434 33.34714233 -33.65234375 32.421875 C-32.72531143 31.4953009 -31.79827911 30.56872681 -30.84315491 29.61407471 C-28.88508741 27.65756833 -26.92371429 25.70445952 -24.9597168 23.75390625 C-22.43690616 21.2481437 -19.92078755 18.73578948 -17.40686703 16.2211113 C-15.01231548 13.82689608 -12.61353397 11.43694411 -10.21484375 9.046875 C-9.30758041 8.14072449 -8.40031708 7.23457397 -7.46556091 6.30096436 C-6.21404991 5.05902313 -6.21404991 5.05902313 -4.93725586 3.79199219 C-4.19938339 3.05793152 -3.46151093 2.32387085 -2.70127869 1.56756592 C-1 0 -1 0 0 0 Z " fill="#EFC389" transform="translate(286,356)"/>
<path d="M0 0 C7.875 6.75 7.875 6.75 11.28295898 10.16943359 C12.04321884 10.92976898 12.8034787 11.69010437 13.58677673 12.47348022 C14.38185135 13.27371613 15.17692596 14.07395203 15.99609375 14.8984375 C16.82963882 15.73339752 17.6631839 16.56835754 18.52198792 17.42861938 C21.16286524 20.07505848 23.80022896 22.72496759 26.4375 25.375 C28.23609649 27.17861643 30.03492227 28.98200425 31.83398438 30.78515625 C36.22531248 35.18746261 40.61376729 39.59261714 45 44 C43.51756178 47.43988509 41.57544821 49.67256877 38.93334961 52.30957031 C38.09585678 53.15013977 37.25836395 53.99070923 36.39549255 54.85675049 C35.49025345 55.75480408 34.58501434 56.65285767 33.65234375 57.578125 C32.72531143 58.5046991 31.79827911 59.43127319 30.84315491 60.38592529 C28.88508741 62.34243167 26.92371429 64.29554048 24.9597168 66.24609375 C22.43690616 68.7518563 19.92078755 71.26421052 17.40686703 73.7788887 C15.01231548 76.17310392 12.61353397 78.56305589 10.21484375 80.953125 C9.30758041 81.85927551 8.40031708 82.76542603 7.46556091 83.69903564 C6.63122025 84.52699646 5.79687958 85.35495728 4.93725586 86.20800781 C4.19938339 86.94206848 3.46151093 87.67612915 2.70127869 88.43243408 C1 90 1 90 0 90 C0 60.3 0 30.6 0 0 Z " fill="#EFC389" transform="translate(178,356)"/>
<path d="M0 0 C29.7 0 59.4 0 90 0 C83.25 7.875 83.25 7.875 79.83056641 11.28295898 C79.07023102 12.04321884 78.30989563 12.8034787 77.52651978 13.58677673 C76.72628387 14.38185135 75.92604797 15.17692596 75.1015625 15.99609375 C74.26660248 16.82963882 73.43164246 17.6631839 72.57138062 18.52198792 C69.92494152 21.16286524 67.27503241 23.80022896 64.625 26.4375 C62.82138357 28.23609649 61.01799575 30.03492227 59.21484375 31.83398438 C54.81253739 36.22531248 50.40738286 40.61376729 46 45 C42.56011491 43.51756178 40.32743123 41.57544821 37.69042969 38.93334961 C36.84986023 38.09585678 36.00929077 37.25836395 35.14324951 36.39549255 C34.24519592 35.49025345 33.34714233 34.58501434 32.421875 33.65234375 C31.4953009 32.72531143 30.56872681 31.79827911 29.61407471 30.84315491 C27.65756833 28.88508741 25.70445952 26.92371429 23.75390625 24.9597168 C21.2481437 22.43690616 18.73578948 19.92078755 16.2211113 17.40686703 C13.82689608 15.01231548 11.43694411 12.61353397 9.046875 10.21484375 C7.68764923 8.85394875 7.68764923 8.85394875 6.30096436 7.46556091 C5.47300354 6.63122025 4.64504272 5.79687958 3.79199219 4.93725586 C3.05793152 4.19938339 2.32387085 3.46151093 1.56756592 2.70127869 C0 1 0 1 0 0 Z " fill="#EEC389" transform="translate(187,347)"/>
<path d="M0 0 C3.43988509 1.48243822 5.67256877 3.42455179 8.30957031 6.06665039 C9.15013977 6.90414322 9.99070923 7.74163605 10.85675049 8.60450745 C11.75480408 9.50974655 12.65285767 10.41498566 13.578125 11.34765625 C14.5046991 12.27468857 15.43127319 13.20172089 16.38592529 14.15684509 C18.34243167 16.11491259 20.29554048 18.07628571 22.24609375 20.0402832 C24.7518563 22.56309384 27.26421052 25.07921245 29.7788887 27.59313297 C32.17310392 29.98768452 34.56305589 32.38646603 36.953125 34.78515625 C37.85927551 35.69241959 38.76542603 36.59968292 39.69903564 37.53443909 C40.52699646 38.36877975 41.35495728 39.20312042 42.20800781 40.06274414 C42.94206848 40.80061661 43.67612915 41.53848907 44.43243408 42.29872131 C46 44 46 44 46 45 C16.3 45 -13.4 45 -44 45 C-37.25 37.125 -37.25 37.125 -33.83056641 33.71704102 C-33.07023102 32.95678116 -32.30989563 32.1965213 -31.52651978 31.41322327 C-30.72628387 30.61814865 -29.92604797 29.82307404 -29.1015625 29.00390625 C-28.26660248 28.17036118 -27.43164246 27.3368161 -26.57138062 26.47801208 C-23.92494152 23.83713476 -21.27503241 21.19977104 -18.625 18.5625 C-16.82138357 16.76390351 -15.01799575 14.96507773 -13.21484375 13.16601562 C-8.81253739 8.77468752 -4.40738286 4.38623271 0 0 Z " fill="#EFC389" transform="translate(231,264)"/>
<path d="M0 0 C0 29.7 0 59.4 0 90 C-7.875 83.25 -7.875 83.25 -11.28295898 79.83056641 C-12.04321884 79.07023102 -12.8034787 78.30989563 -13.58677673 77.52651978 C-14.38185135 76.72628387 -15.17692596 75.92604797 -15.99609375 75.1015625 C-16.82963882 74.26660248 -17.6631839 73.43164246 -18.52198792 72.57138062 C-21.16286524 69.92494152 -23.80022896 67.27503241 -26.4375 64.625 C-28.23609649 62.82138357 -30.03492227 61.01799575 -31.83398438 59.21484375 C-36.22531248 54.81253739 -40.61376729 50.40738286 -45 46 C-43.51756178 42.56011491 -41.57544821 40.32743123 -38.93334961 37.69042969 C-38.09585678 36.84986023 -37.25836395 36.00929077 -36.39549255 35.14324951 C-35.49025345 34.24519592 -34.58501434 33.34714233 -33.65234375 32.421875 C-32.72531143 31.4953009 -31.79827911 30.56872681 -30.84315491 29.61407471 C-28.88508741 27.65756833 -26.92371429 25.70445952 -24.9597168 23.75390625 C-22.43690616 21.2481437 -19.92078755 18.73578948 -17.40686703 16.2211113 C-15.01231548 13.82689608 -12.61353397 11.43694411 -10.21484375 9.046875 C-9.30758041 8.14072449 -8.40031708 7.23457397 -7.46556091 6.30096436 C-6.21404991 5.05902313 -6.21404991 5.05902313 -4.93725586 3.79199219 C-4.19938339 3.05793152 -3.46151093 2.32387085 -2.70127869 1.56756592 C-1 0 -1 0 0 0 Z " fill="#EEC389" transform="translate(432,210)"/>
<path d="M0 0 C0 29.7 0 59.4 0 90 C-7.875 83.25 -7.875 83.25 -11.28295898 79.83056641 C-12.04321884 79.07023102 -12.8034787 78.30989563 -13.58677673 77.52651978 C-14.38185135 76.72628387 -15.17692596 75.92604797 -15.99609375 75.1015625 C-16.82963882 74.26660248 -17.6631839 73.43164246 -18.52198792 72.57138062 C-21.16286524 69.92494152 -23.80022896 67.27503241 -26.4375 64.625 C-28.23609649 62.82138357 -30.03492227 61.01799575 -31.83398438 59.21484375 C-36.22531248 54.81253739 -40.61376729 50.40738286 -45 46 C-43.51756178 42.56011491 -41.57544821 40.32743123 -38.93334961 37.69042969 C-38.09585678 36.84986023 -37.25836395 36.00929077 -36.39549255 35.14324951 C-35.49025345 34.24519592 -34.58501434 33.34714233 -33.65234375 32.421875 C-32.72531143 31.4953009 -31.79827911 30.56872681 -30.84315491 29.61407471 C-28.88508741 27.65756833 -26.92371429 25.70445952 -24.9597168 23.75390625 C-22.43690616 21.2481437 -19.92078755 18.73578948 -17.40686703 16.2211113 C-15.01231548 13.82689608 -12.61353397 11.43694411 -10.21484375 9.046875 C-9.30758041 8.14072449 -8.40031708 7.23457397 -7.46556091 6.30096436 C-6.21404991 5.05902313 -6.21404991 5.05902313 -4.93725586 3.79199219 C-4.19938339 3.05793152 -3.46151093 2.32387085 -2.70127869 1.56756592 C-1 0 -1 0 0 0 Z " fill="#EFC389" transform="translate(286,210)"/>
<path d="M0 0 C7.875 6.75 7.875 6.75 11.28295898 10.16943359 C12.04321884 10.92976898 12.8034787 11.69010437 13.58677673 12.47348022 C14.38185135 13.27371613 15.17692596 14.07395203 15.99609375 14.8984375 C16.82963882 15.73339752 17.6631839 16.56835754 18.52198792 17.42861938 C21.16286524 20.07505848 23.80022896 22.72496759 26.4375 25.375 C28.23609649 27.17861643 30.03492227 28.98200425 31.83398438 30.78515625 C36.22531248 35.18746261 40.61376729 39.59261714 45 44 C43.51756178 47.43988509 41.57544821 49.67256877 38.93334961 52.30957031 C38.09585678 53.15013977 37.25836395 53.99070923 36.39549255 54.85675049 C35.49025345 55.75480408 34.58501434 56.65285767 33.65234375 57.578125 C32.72531143 58.5046991 31.79827911 59.43127319 30.84315491 60.38592529 C28.88508741 62.34243167 26.92371429 64.29554048 24.9597168 66.24609375 C22.43690616 68.7518563 19.92078755 71.26421052 17.40686703 73.7788887 C15.01231548 76.17310392 12.61353397 78.56305589 10.21484375 80.953125 C9.30758041 81.85927551 8.40031708 82.76542603 7.46556091 83.69903564 C6.63122025 84.52699646 5.79687958 85.35495728 4.93725586 86.20800781 C4.19938339 86.94206848 3.46151093 87.67612915 2.70127869 88.43243408 C1 90 1 90 0 90 C0 60.3 0 30.6 0 0 Z " fill="#EFC389" transform="translate(178,210)"/>
<path d="M0 0 C29.7 0 59.4 0 90 0 C83.25 7.875 83.25 7.875 79.83056641 11.28295898 C79.07023102 12.04321884 78.30989563 12.8034787 77.52651978 13.58677673 C76.72628387 14.38185135 75.92604797 15.17692596 75.1015625 15.99609375 C74.26660248 16.82963882 73.43164246 17.6631839 72.57138062 18.52198792 C69.92494152 21.16286524 67.27503241 23.80022896 64.625 26.4375 C62.82138357 28.23609649 61.01799575 30.03492227 59.21484375 31.83398438 C54.81253739 36.22531248 50.40738286 40.61376729 46 45 C42.56011491 43.51756178 40.32743123 41.57544821 37.69042969 38.93334961 C36.84986023 38.09585678 36.00929077 37.25836395 35.14324951 36.39549255 C34.24519592 35.49025345 33.34714233 34.58501434 32.421875 33.65234375 C31.4953009 32.72531143 30.56872681 31.79827911 29.61407471 30.84315491 C27.65756833 28.88508741 25.70445952 26.92371429 23.75390625 24.9597168 C21.2481437 22.43690616 18.73578948 19.92078755 16.2211113 17.40686703 C13.82689608 15.01231548 11.43694411 12.61353397 9.046875 10.21484375 C7.68764923 8.85394875 7.68764923 8.85394875 6.30096436 7.46556091 C5.47300354 6.63122025 4.64504272 5.79687958 3.79199219 4.93725586 C3.05793152 4.19938339 2.32387085 3.46151093 1.56756592 2.70127869 C0 1 0 1 0 0 Z " fill="#EFC389" transform="translate(333,201)"/>
<path d="M0 0 C29.7 0 59.4 0 90 0 C83.25 7.875 83.25 7.875 79.83056641 11.28295898 C79.07023102 12.04321884 78.30989563 12.8034787 77.52651978 13.58677673 C76.72628387 14.38185135 75.92604797 15.17692596 75.1015625 15.99609375 C74.26660248 16.82963882 73.43164246 17.6631839 72.57138062 18.52198792 C69.92494152 21.16286524 67.27503241 23.80022896 64.625 26.4375 C62.82138357 28.23609649 61.01799575 30.03492227 59.21484375 31.83398438 C54.81253739 36.22531248 50.40738286 40.61376729 46 45 C42.56011491 43.51756178 40.32743123 41.57544821 37.69042969 38.93334961 C36.84986023 38.09585678 36.00929077 37.25836395 35.14324951 36.39549255 C34.24519592 35.49025345 33.34714233 34.58501434 32.421875 33.65234375 C31.4953009 32.72531143 30.56872681 31.79827911 29.61407471 30.84315491 C27.65756833 28.88508741 25.70445952 26.92371429 23.75390625 24.9597168 C21.2481437 22.43690616 18.73578948 19.92078755 16.2211113 17.40686703 C13.82689608 15.01231548 11.43694411 12.61353397 9.046875 10.21484375 C7.68764923 8.85394875 7.68764923 8.85394875 6.30096436 7.46556091 C5.47300354 6.63122025 4.64504272 5.79687958 3.79199219 4.93725586 C3.05793152 4.19938339 2.32387085 3.46151093 1.56756592 2.70127869 C0 1 0 1 0 0 Z " fill="#EFC389" transform="translate(187,201)"/>
<path d="M0 0 C0 29.7 0 59.4 0 90 C-7.875 83.25 -7.875 83.25 -11.28295898 79.83056641 C-12.04321884 79.07023102 -12.8034787 78.30989563 -13.58677673 77.52651978 C-14.38185135 76.72628387 -15.17692596 75.92604797 -15.99609375 75.1015625 C-16.82963882 74.26660248 -17.6631839 73.43164246 -18.52198792 72.57138062 C-21.16286524 69.92494152 -23.80022896 67.27503241 -26.4375 64.625 C-28.23609649 62.82138357 -30.03492227 61.01799575 -31.83398438 59.21484375 C-36.22531248 54.81253739 -40.61376729 50.40738286 -45 46 C-43.51756178 42.56011491 -41.57544821 40.32743123 -38.93334961 37.69042969 C-38.09585678 36.84986023 -37.25836395 36.00929077 -36.39549255 35.14324951 C-35.49025345 34.24519592 -34.58501434 33.34714233 -33.65234375 32.421875 C-32.72531143 31.4953009 -31.79827911 30.56872681 -30.84315491 29.61407471 C-28.88508741 27.65756833 -26.92371429 25.70445952 -24.9597168 23.75390625 C-22.43690616 21.2481437 -19.92078755 18.73578948 -17.40686703 16.2211113 C-15.01231548 13.82689608 -12.61353397 11.43694411 -10.21484375 9.046875 C-9.30758041 8.14072449 -8.40031708 7.23457397 -7.46556091 6.30096436 C-6.21404991 5.05902313 -6.21404991 5.05902313 -4.93725586 3.79199219 C-4.19938339 3.05793152 -3.46151093 2.32387085 -2.70127869 1.56756592 C-1 0 -1 0 0 0 Z " fill="#EFC389" transform="translate(286,64)"/>
<path d="M0 0 C7.875 6.75 7.875 6.75 11.28295898 10.16943359 C12.04321884 10.92976898 12.8034787 11.69010437 13.58677673 12.47348022 C14.38185135 13.27371613 15.17692596 14.07395203 15.99609375 14.8984375 C16.82963882 15.73339752 17.6631839 16.56835754 18.52198792 17.42861938 C21.16286524 20.07505848 23.80022896 22.72496759 26.4375 25.375 C28.23609649 27.17861643 30.03492227 28.98200425 31.83398438 30.78515625 C36.22531248 35.18746261 40.61376729 39.59261714 45 44 C43.51756178 47.43988509 41.57544821 49.67256877 38.93334961 52.30957031 C38.09585678 53.15013977 37.25836395 53.99070923 36.39549255 54.85675049 C35.49025345 55.75480408 34.58501434 56.65285767 33.65234375 57.578125 C32.72531143 58.5046991 31.79827911 59.43127319 30.84315491 60.38592529 C28.88508741 62.34243167 26.92371429 64.29554048 24.9597168 66.24609375 C22.43690616 68.7518563 19.92078755 71.26421052 17.40686703 73.7788887 C15.01231548 76.17310392 12.61353397 78.56305589 10.21484375 80.953125 C9.30758041 81.85927551 8.40031708 82.76542603 7.46556091 83.69903564 C6.63122025 84.52699646 5.79687958 85.35495728 4.93725586 86.20800781 C4.19938339 86.94206848 3.46151093 87.67612915 2.70127869 88.43243408 C1 90 1 90 0 90 C0 60.3 0 30.6 0 0 Z " fill="#EFC389" transform="translate(178,64)"/>
<path d="M0 0 C1.665793 0.00560706 3.331591 0.0098719 4.99739075 0.01286316 C9.34573434 0.02422466 13.69376917 0.05361508 18.04199219 0.0869751 C22.49344712 0.11786532 26.94495277 0.13140868 31.39648438 0.14648438 C40.10430711 0.17849469 48.81188059 0.22958341 57.51953125 0.29296875 C52.83132191 5.92865536 47.81967717 11.12400841 42.62109375 16.2890625 C41.78613373 17.12260757 40.95117371 17.95615265 40.09091187 18.81495667 C37.44447277 21.45583399 34.79456366 24.09319771 32.14453125 26.73046875 C30.34091482 28.52906524 28.537527 30.32789102 26.734375 32.12695312 C22.33206864 36.51828123 17.92691411 40.90673604 13.51953125 45.29296875 C10.26189496 43.86296948 8.08917898 42.11540553 5.57714844 39.609375 C4.81666199 38.85519287 4.05617554 38.10101074 3.27264404 37.32397461 C2.05680634 36.10206421 2.05680634 36.10206421 0.81640625 34.85546875 C-0.02138367 34.01959229 -0.85917358 33.18371582 -1.72235107 32.32250977 C-3.48988778 30.55633318 -5.25490477 28.78763187 -7.01757812 27.01660156 C-9.72695149 24.29649994 -12.4468464 21.58724876 -15.16796875 18.87890625 C-16.88215232 17.16340158 -18.59571565 15.44727689 -20.30859375 13.73046875 C-21.12724915 12.91586182 -21.94590454 12.10125488 -22.78936768 11.26196289 C-23.53724548 10.50778076 -24.28512329 9.75359863 -25.05566406 8.9765625 C-25.71866516 8.31197021 -26.38166626 7.64737793 -27.0647583 6.96264648 C-28.48046875 5.29296875 -28.48046875 5.29296875 -28.48046875 3.29296875 C-19.03226991 -0.11332656 -9.88356444 -0.09860759 0 0 Z " fill="#EEC389" transform="translate(219.48046875,54.70703125)"/>
<path d="M0 0 C4.62 0 9.24 0 14 0 C14 46.2 14 92.4 14 140 C9.38 140 4.76 140 0 140 C0 93.8 0 47.6 0 0 Z " fill="#D2E5F7" transform="translate(298,23)"/>
<path d="M0 0 C4.62 0 9.24 0 14 0 C14 46.2 14 92.4 14 140 C9.38 140 4.76 140 0 140 C0 93.8 0 47.6 0 0 Z " fill="#D2E5F7" transform="translate(152,23)"/>
<path d="M0 0 C129.03 0 258.06 0 391 0 C391 4.95 391 9.9 391 15 C359.65 15 328.3 15 296 15 C296 10.38 296 5.76 296 1 C198.32 1 100.64 1 0 1 C0 0.67 0 0.34 0 0 Z " fill="#9EC1E4" transform="translate(110,174)"/>
<path d="M0 0 C4.95 0 9.9 0 15 0 C15 35.64 15 71.28 15 108 C10.05 108 5.1 108 0 108 C0 72.36 0 36.72 0 0 Z " fill="#D2E5F7" transform="translate(444,201)"/>
<path d="M0 0 C4.95 0 9.9 0 15 0 C15 35.64 15 71.28 15 108 C10.05 108 5.1 108 0 108 C0 72.36 0 36.72 0 0 Z " fill="#D2E5F7" transform="translate(298,201)"/>
<path d="M0 0 C4.95 0 9.9 0 15 0 C15 35.31 15 70.62 15 107 C10.05 107 5.1 107 0 107 C0 71.69 0 36.38 0 0 Z " fill="#D3E6F8" transform="translate(444,347)"/>
<path d="M0 0 C4.95 0 9.9 0 15 0 C15 35.31 15 70.62 15 107 C10.05 107 5.1 107 0 107 C0 71.69 0 36.38 0 0 Z " fill="#D3E6F8" transform="translate(298,347)"/>
<path d="M0 0 C4.95 0 9.9 0 15 0 C15 35.31 15 70.62 15 107 C10.05 107 5.1 107 0 107 C0 71.69 0 36.38 0 0 Z " fill="#D3E6F8" transform="translate(151,347)"/>
<path d="M0 0 C0.96149963 -0.00960754 1.92299927 -0.01921509 2.91363525 -0.02911377 C3.95630554 -0.03336365 4.99897583 -0.03761353 6.07324219 -0.04199219 C7.67906158 -0.0505423 7.67906158 -0.0505423 9.31732178 -0.05926514 C11.58702605 -0.06872482 13.85674412 -0.07525295 16.12646484 -0.07910156 C19.59204265 -0.08878871 23.05702288 -0.11979594 26.52246094 -0.15136719 C28.7268845 -0.15789899 30.9313123 -0.16314877 33.13574219 -0.16699219 C34.68760223 -0.18551239 34.68760223 -0.18551239 36.27081299 -0.20440674 C42.49886556 -0.18521893 47.2053577 0.27451133 52.01464844 4.66113281 C57.28622815 11.43132215 56.37011719 13.37764113 56.37011719 23.16113281 C32.61011719 23.16113281 8.85011719 23.16113281 -15.62988281 23.16113281 C-15.62988281 10.36113281 -15.62988281 10.36113281 -12.62988281 6.16113281 C-8.62925051 2.24584734 -5.63019424 0.04533685 0 0 Z " fill="#7AA9EF" transform="translate(138.6298828125,465.8388671875)"/>
<path d="M0 0 C1.06014313 -0.0038269 2.12028625 -0.00765381 3.21255493 -0.01159668 C5.4499812 -0.01431253 7.68743939 -0.00697437 9.92480469 0.00976562 C13.33341035 0.03113619 16.73989803 0.00997351 20.1484375 -0.015625 C22.32812962 -0.01298084 24.50782043 -0.00785403 26.6875 0 C27.69920258 -0.00809692 28.71090515 -0.01619385 29.75326538 -0.02453613 C35.93817822 0.05660808 40.86813221 0.85553047 45.9765625 4.53125 C51.36684393 10.99958772 49.9765625 14.13511521 49.9765625 23.53125 C26.5465625 23.53125 3.1165625 23.53125 -21.0234375 23.53125 C-21.0234375 8.63651316 -21.0234375 8.63651316 -17.0234375 4.53125 C-11.62448155 -0.12061993 -6.95401189 -0.05543298 0 0 Z " fill="#7AAAF0" transform="translate(437.0234375,465.46875)"/>
<path d="M0 0 C1.44202286 -0.01429802 1.44202286 -0.01429802 2.91317749 -0.02888489 C4.46169907 -0.02751778 4.46169907 -0.02751778 6.04150391 -0.02612305 C7.10922028 -0.03040817 8.17693665 -0.0346933 9.27700806 -0.03910828 C11.53476249 -0.04484898 13.79253541 -0.04535376 16.05029297 -0.04101562 C19.49820677 -0.03785997 22.94525894 -0.06130391 26.39306641 -0.08666992 C28.58837783 -0.08894341 30.78369155 -0.08964618 32.97900391 -0.08862305 C34.52145279 -0.10243767 34.52145279 -0.10243767 36.09506226 -0.11653137 C42.29050243 -0.07665127 47.04561504 0.38321311 51.78759766 4.80981445 C57.34342511 12.07512728 56.14306641 11.74120243 56.14306641 23.2746582 C32.71306641 23.2746582 9.28306641 23.2746582 -14.85693359 23.2746582 C-14.85693359 9.2746582 -14.85693359 9.2746582 -12.10693359 5.0246582 C-8.46735002 1.45860157 -5.08681438 0.02778535 0 0 Z " fill="#7AAAEF" transform="translate(284.85693359375,465.725341796875)"/>
<path d="M0 0 C4.62 0 9.24 0 14 0 C14 35.64 14 71.28 14 108 C9.38 108 4.76 108 0 108 C0 72.36 0 36.72 0 0 Z " fill="#D2E5F7" transform="translate(152,201)"/>
<path d="M0 0 C31.02 0 62.04 0 94 0 C94 4.62 94 9.24 94 14 C62.98 14 31.96 14 0 14 C0 9.38 0 4.76 0 0 Z " fill="#A4CFF2" transform="translate(406,321)"/>
<path d="M0 0 C4.29 0 8.58 0 13 0 C13 20.79 13 41.58 13 63 C8.71 63 4.42 63 0 63 C0 42.21 0 21.42 0 0 Z " fill="#E7667C" transform="translate(85,426)"/>
<path d="M0 0 C4.29 0 8.58 0 13 0 C13 20.79 13 41.58 13 63 C8.71 63 4.42 63 0 63 C0 42.21 0 21.42 0 0 Z " fill="#E7667C" transform="translate(12,426)"/>
<path d="M0 0 C7.92 0 15.84 0 24 0 C24 10.89 24 21.78 24 33 C17.4 33 10.8 33 4 33 C2.6831624 27.73264959 1.58953415 22.94430976 0.875 17.625 C0.70742188 16.42101562 0.53984375 15.21703125 0.3671875 13.9765625 C-0.06132688 9.33584291 0 4.66046166 0 0 Z " fill="#ECC189" transform="translate(49,266)"/>
<path d="M0 0 C1.22791903 8.98524877 -1.72260022 13.92847516 -7 21 C-8.05380859 22.47919922 -8.05380859 22.47919922 -9.12890625 23.98828125 C-14.11664821 30.7651963 -19.59287437 37.01829397 -25.3125 43.1875 C-25.9943335 43.93080566 -26.67616699 44.67411133 -27.37866211 45.43994141 C-28.03358643 46.13394043 -28.68851074 46.82793945 -29.36328125 47.54296875 C-29.94376221 48.16196045 -30.52424316 48.78095215 -31.12231445 49.41870117 C-33.28175475 51.23728066 -35.34505988 52.0842182 -38 53 C-40.31 50.69 -42.62 48.38 -45 46 C-43.16686573 42.33373147 -41.76630185 40.51791668 -38.93334961 37.69042969 C-38.09585678 36.84986023 -37.25836395 36.00929077 -36.39549255 35.14324951 C-35.49025345 34.24519592 -34.58501434 33.34714233 -33.65234375 32.421875 C-32.72531143 31.4953009 -31.79827911 30.56872681 -30.84315491 29.61407471 C-28.88508741 27.65756833 -26.92371429 25.70445952 -24.9597168 23.75390625 C-22.43690616 21.2481437 -19.92078755 18.73578948 -17.40686703 16.2211113 C-15.01231548 13.82689608 -12.61353397 11.43694411 -10.21484375 9.046875 C-9.30758041 8.14072449 -8.40031708 7.23457397 -7.46556091 6.30096436 C-6.21404991 5.05902313 -6.21404991 5.05902313 -4.93725586 3.79199219 C-4.19938339 3.05793152 -3.46151093 2.32387085 -2.70127869 1.56756592 C-1 0 -1 0 0 0 Z " fill="#EDC189" transform="translate(432,356)"/>
<path d="M0 0 C5.28 0 10.56 0 16 0 C16 10.89 16 21.78 16 33 C8.41 33 0.82 33 -7 33 C-4.15 8.3 -4.15 8.3 0 0 Z " fill="#ECC189" transform="translate(57,197)"/>
<path d="M0 0 C2.30556356 0.87028136 3.46928869 1.8114339 5.19995117 3.55224609 C6.0589502 4.40979492 6.0589502 4.40979492 6.93530273 5.28466797 C7.83394043 6.20989258 7.83394043 6.20989258 8.75073242 7.15380859 C9.6861084 8.10610352 9.6861084 8.10610352 10.64038086 9.07763672 C36.4472275 35.64547159 36.4472275 35.64547159 37.25854492 45.04052734 C37.19344076 47.28662109 37.12833659 49.53271484 37.06323242 51.77880859 C31.42754581 47.09059926 26.23219276 42.07895451 21.06713867 36.88037109 C20.2335936 36.04541107 19.40004852 35.21045105 18.54124451 34.35018921 C15.90036718 31.70375012 13.26300346 29.05384101 10.62573242 26.40380859 C8.82713593 24.60019216 7.02831015 22.79680434 5.22924805 20.99365234 C0.83791994 16.59134598 -3.55053486 12.18619145 -7.93676758 7.77880859 C-4.0173942 -0.45881245 -4.0173942 -0.45881245 0 0 Z " fill="#EBC089" transform="translate(394.936767578125,102.22119140625)"/>
<path d="M0 0 C4.95 0 9.9 0 15 0 C15 35.64 15 71.28 15 108 C14.67 108 14.34 108 14 108 C14 81.93 14 55.86 14 29 C9.38 29 4.76 29 0 29 C0 19.43 0 9.86 0 0 Z " fill="#A4C9EB" transform="translate(444,201)"/>
<path d="M0 0 C4.95 0 9.9 0 15 0 C15 35.64 15 71.28 15 108 C14.67 108 14.34 108 14 108 C14 81.93 14 55.86 14 29 C9.38 29 4.76 29 0 29 C0 19.43 0 9.86 0 0 Z " fill="#9EC2E5" transform="translate(298,201)"/>
<path d="M0 0 C4.95 0 9.9 0 15 0 C15 35.31 15 70.62 15 107 C14.67 107 14.34 107 14 107 C14 81.26 14 55.52 14 29 C9.38 29 4.76 29 0 29 C0 19.43 0 9.86 0 0 Z " fill="#A3C8EA" transform="translate(444,347)"/>
<path d="M0 0 C4.95 0 9.9 0 15 0 C15 35.31 15 70.62 15 107 C14.67 107 14.34 107 14 107 C14 81.26 14 55.52 14 29 C9.38 29 4.76 29 0 29 C0 19.43 0 9.86 0 0 Z " fill="#9EC1E4" transform="translate(298,347)"/>
<path d="M0 0 C4.95 0 9.9 0 15 0 C15 9.57 15 19.14 15 29 C10.38 29 5.76 29 1 29 C1 54.74 1 80.48 1 107 C0.67 107 0.34 107 0 107 C0 71.69 0 36.38 0 0 Z " fill="#9CBFE2" transform="translate(151,347)"/>
<path d="M0 0 C11.88 0 23.76 0 36 0 C36 4.29 36 8.58 36 13 C24.12 13 12.24 13 0 13 C0 8.71 0 4.42 0 0 Z " fill="#D1657E" transform="translate(37,378)"/>
<path d="M0 0 C11.88 0 23.76 0 36 0 C36 3.96 36 7.92 36 12 C24.12 12 12.24 12 0 12 C0 8.04 0 4.08 0 0 Z " fill="#DF687F" transform="translate(37,447)"/>
<path d="M0 0 C11.88 0 23.76 0 36 0 C36 3.96 36 7.92 36 12 C24.12 12 12.24 12 0 12 C0 8.04 0 4.08 0 0 Z " fill="#DF687F" transform="translate(37,310)"/>
<path d="M0 0 C11.88 0 23.76 0 36 0 C36 3.96 36 7.92 36 12 C24.12 12 12.24 12 0 12 C0 8.04 0 4.08 0 0 Z " fill="#E5667C" transform="translate(37,242)"/>
<path d="M0 0 C11.88 0 23.76 0 36 0 C36 3.96 36 7.92 36 12 C24.12 12 12.24 12 0 12 C0 8.04 0 4.08 0 0 Z " fill="#DE677E" transform="translate(37,174)"/>
<path d="M0 0 C4.62 0 9.24 0 14 0 C14 9.57 14 19.14 14 29 C9.38 29 4.76 29 0 29 C0 19.43 0 9.86 0 0 Z " fill="#A4CFF2" transform="translate(152,201)"/>
<path d="M0 0 C4.28359673 1.8855148 6.15103592 4.35965701 9 8 C0.595605 14.64237012 -7.91453241 20.80223647 -17.1875 26.1875 C-17.98841064 26.65647705 -18.78932129 27.1254541 -19.61450195 27.60864258 C-23.36872601 29.74260163 -26.62381039 31.55273413 -31 32 C-25.19316781 24.88094773 -18.63714556 18.52625188 -12.125 12.0625 C-10.94768362 10.89020796 -9.77059826 9.71768386 -8.59375 8.54492188 C-5.73182511 5.69393018 -2.86678543 2.84610385 0 0 Z " fill="#EBC089" transform="translate(377,410)"/>
<path d="M0 0 C5.16801107 1.48812838 9.47213393 3.77572547 14.0625 6.5 C14.80040771 6.93489746 15.53831543 7.36979492 16.29858398 7.81787109 C23.28957454 12.02317092 29.69065057 16.84279264 36 22 C34.02 24.31 32.04 26.62 30 29 C25.83928892 26.91964446 23.13350082 24.40607561 19.921875 21.15234375 C19.35043762 20.58044815 18.77900024 20.00855255 18.19024658 19.41932678 C16.98773552 18.21380214 15.78764828 17.00585546 14.58984375 15.7956543 C12.74794101 13.93542052 10.89808634 12.08338783 9.046875 10.23242188 C7.87973386 9.06036812 6.71305087 7.88785793 5.546875 6.71484375 C4.99070496 6.15756088 4.43453491 5.60027802 3.86151123 5.02610779 C0 1.11606528 0 1.11606528 0 0 Z " fill="#E9BF89" transform="translate(349,71)"/>
<path d="M0 0 C5.94 0 11.88 0 18 0 C18 3.96 18 7.92 18 12 C12.06 12 6.12 12 0 12 C0 8.04 0 4.08 0 0 Z " fill="#F98F9D" transform="translate(37,242)"/>
<path d="M0 0 C5.61 0 11.22 0 17 0 C17 3.63 17 7.26 17 11 C11.39 11 5.78 11 0 11 C0 7.37 0 3.74 0 0 Z " fill="#FC909D" transform="translate(38,447)"/>
<path d="M0 0 C5.61 0 11.22 0 17 0 C17 3.63 17 7.26 17 11 C11.39 11 5.78 11 0 11 C0 7.37 0 3.74 0 0 Z " fill="#FC909D" transform="translate(38,379)"/>
<path d="M0 0 C5.61 0 11.22 0 17 0 C17 3.63 17 7.26 17 11 C11.39 11 5.78 11 0 11 C0 7.37 0 3.74 0 0 Z " fill="#FC909D" transform="translate(38,311)"/>
<path d="M0 0 C5.61 0 11.22 0 17 0 C17 3.63 17 7.26 17 11 C11.39 11 5.78 11 0 11 C0 7.37 0 3.74 0 0 Z " fill="#FC909D" transform="translate(38,174)"/>
<path d="M0 0 C2.97 0 5.94 0 9 0 C9 5.94 9 11.88 9 18 C5.87229723 14.87229723 4.62047061 12.43289185 2.8125 8.4375 C2.28269531 7.28121094 1.75289063 6.12492187 1.20703125 4.93359375 C0 2 0 2 0 0 Z " fill="#E9BF89" transform="translate(64,334)"/>
</svg>