<svg xmlns="http://www.w3.org/2000/svg" width="28" height="28" viewBox="0 0 28 28" fill="none">
  <path d="M24.5 24.5L19.4332 19.4332M19.4332 19.4332C20.2999 18.5665 20.9874 17.5375 21.4564 16.4051C21.9255 15.2727 22.1669 14.059 22.1669 12.8333C22.1669 11.6076 21.9255 10.3939 21.4564 9.26153C20.9874 8.12913 20.2999 7.1002 19.4332 6.2335C18.5665 5.3668 17.5375 4.67929 16.4051 4.21024C15.2727 3.74118 14.059 3.49976 12.8333 3.49976C11.6076 3.49976 10.3939 3.74118 9.26153 4.21024C8.12912 4.67929 7.1002 5.3668 6.2335 6.2335C4.48311 7.98388 3.49976 10.3579 3.49976 12.8333C3.49976 15.3088 4.48311 17.6828 6.2335 19.4332C7.98388 21.1836 10.3579 22.1669 12.8333 22.1669C15.3087 22.1669 17.6828 21.1836 19.4332 19.4332Z" stroke="#343B3F" stroke-width="2.66667" stroke-linecap="round" stroke-linejoin="round"/>
</svg>