<svg xmlns="http://www.w3.org/2000/svg" width="32" height="32" viewBox="0 0 32 32" fill="none">
  <path d="M28.24 8L17.24 1.7C16.8605 1.48987 16.4338 1.37964 16 1.37964C15.5662 1.37964 15.1395 1.48987 14.76 1.7L3.76002 8C3.37591 8.2194 3.05689 8.5368 2.83553 8.91979C2.61417 9.30278 2.49839 9.73764 2.50002 10.18V22C2.52877 22.4114 2.65886 22.8094 2.87871 23.1583C3.09855 23.5073 3.40132 23.7964 3.76002 24L14.76 30.22C15.1395 30.4301 15.5662 30.5404 16 30.5404C16.4338 30.5404 16.8605 30.4301 17.24 30.22L28.24 24C28.5987 23.7964 28.9015 23.5073 29.1213 23.1583C29.3412 22.8094 29.4713 22.4114 29.5 22V10.1C29.4878 9.67128 29.3654 9.25292 29.1448 8.88514C28.9241 8.51737 28.6125 8.21255 28.24 8ZM14.76 27.42L10.5 25.02V14.42L14.76 16.74V27.42ZM16 14.58L11.84 12.3L21.46 6.96L25.64 9.32L16 14.58ZM16 3.88L18.92 5.52L9.24002 10.9L6.36002 9.32L16 3.88ZM5.00002 11.42L8.00002 13.06V23.6L5.00002 22V11.42ZM17.24 27.42V16.74L27 11.42V22L17.24 27.42Z" fill="#343B3F"/>
</svg>