<?xml version="1.0" standalone="no"?>
<!DOCTYPE svg PUBLIC "-//W3C//DTD SVG 20010904//EN"
 "http://www.w3.org/TR/2001/REC-SVG-20010904/DTD/svg10.dtd">
<svg version="1.0" xmlns="http://www.w3.org/2000/svg"
 width="512.000000pt" height="512.000000pt" viewBox="0 0 512.000000 512.000000"
 preserveAspectRatio="xMidYMid meet">

<g transform="translate(0.000000,512.000000) scale(0.100000,-0.100000)"
fill="#000000" stroke="none">
<path d="M1865 5114 c-207 -20 -364 -52 -522 -108 -712 -248 -1212 -860 -1324
-1621 -19 -126 -16 -433 5 -564 69 -437 262 -820 564 -1118 386 -383 873 -583
1417 -583 377 0 764 111 1065 306 39 25 73 44 74 42 1 -1 11 -25 21 -53 10
-27 31 -68 46 -90 15 -22 301 -313 636 -647 662 -661 643 -644 783 -670 124
-23 269 24 363 119 95 94 142 239 119 363 -26 140 -9 121 -670 783 -334 335
-625 621 -647 636 -22 15 -62 36 -90 46 -27 10 -51 20 -53 21 -2 1 19 38 47
82 198 316 301 678 301 1057 0 541 -198 1025 -576 1411 -297 302 -681 498
-1114 569 -94 15 -367 27 -445 19z m353 -519 c236 -35 478 -133 662 -268 523
-384 739 -1049 543 -1672 -110 -349 -378 -671 -710 -852 -354 -193 -805 -231
-1188 -101 -970 331 -1329 1515 -706 2327 281 365 707 576 1174 580 70 0 171
-6 225 -14z"/>
</g>
</svg>
