<svg xmlns="http://www.w3.org/2000/svg" width="32" height="32" viewBox="0 0 32 32" fill="none">
        <path d="M14.5466 3.70934C15.21 3.34198 15.988 3.23952 16.7239 3.42258C17.4599 3.60564 18.0992 4.06063 18.5132 4.69601L18.6239 4.88001L28.9692 23.5587C29.2135 24.0001 29.3425 24.496 29.3442 25.0005C29.346 25.505 29.2206 26.0018 28.9795 26.4449C28.7383 26.888 28.3894 27.2632 27.9648 27.5357C27.5403 27.8083 27.0539 27.9693 26.5506 28.004L26.3452 28.012H5.65722C5.15328 28.012 4.65745 27.8851 4.21551 27.6429C3.77357 27.4007 3.39977 27.0511 3.12859 26.6263C2.85742 26.2016 2.69761 25.7153 2.66393 25.2125C2.63026 24.7097 2.72379 24.2065 2.93589 23.7493L3.03189 23.5587L13.3746 4.88001C13.6473 4.3877 14.0529 3.98203 14.5452 3.70934H14.5466ZM27.2199 24.5267L16.8732 5.84934C16.7924 5.70381 16.6765 5.58076 16.5361 5.49136C16.3956 5.40196 16.2351 5.34903 16.069 5.33737C15.903 5.32572 15.7366 5.35571 15.5851 5.42462C15.4335 5.49354 15.3016 5.59919 15.2012 5.73201L15.1252 5.84934L4.78256 24.5267C4.70326 24.6695 4.66017 24.8296 4.65706 24.993C4.65395 25.1563 4.69092 25.318 4.76472 25.4637C4.83852 25.6095 4.94692 25.735 5.08042 25.8291C5.21393 25.9233 5.36848 25.9834 5.53056 26.004L5.65722 26.012H26.3452C26.5085 26.0119 26.6693 25.9718 26.8135 25.8952C26.9577 25.8186 27.081 25.7079 27.1725 25.5726C27.2641 25.4374 27.3211 25.2819 27.3387 25.1195C27.3562 24.9572 27.3337 24.793 27.2732 24.6413L27.2199 24.5267L16.8732 5.84934L27.2199 24.5267ZM15.9999 21.336C16.1783 21.3304 16.356 21.3606 16.5224 21.425C16.6889 21.4893 16.8407 21.5865 16.9689 21.7107C17.0971 21.8349 17.199 21.9836 17.2686 22.1479C17.3382 22.3122 17.374 22.4889 17.374 22.6673C17.374 22.8458 17.3382 23.0225 17.2686 23.1868C17.199 23.3511 17.0971 23.4998 16.9689 23.624C16.8407 23.7482 16.6889 23.8453 16.5224 23.9097C16.356 23.9741 16.1783 24.0043 15.9999 23.9987C15.6541 23.9877 15.3261 23.8427 15.0854 23.5942C14.8446 23.3457 14.71 23.0133 14.71 22.6673C14.71 22.3214 14.8446 21.989 15.0854 21.7405C15.3261 21.492 15.6541 21.347 15.9999 21.336ZM15.9932 11.3333C16.2349 11.333 16.4685 11.4202 16.6509 11.5788C16.8333 11.7373 16.952 11.9566 16.9852 12.196L16.9946 12.332L16.9999 18.3347C17.0029 18.59 16.9081 18.8367 16.7349 19.0244C16.5618 19.212 16.3235 19.3264 16.0687 19.3439C15.814 19.3615 15.5622 19.281 15.365 19.1188C15.1678 18.9567 15.04 18.7253 15.0079 18.472L14.9999 18.336L14.9946 12.3333C14.9946 12.0681 15.0999 11.8138 15.2875 11.6262C15.475 11.4387 15.7293 11.3333 15.9946 11.3333H15.9932Z" fill="#DADADA"/>
        </svg>